<svg xmlns="http://www.w3.org/2000/svg" width="40" height="40" fill="none" viewBox="0 0 40 40"><path fill="#E5379C" fill-rule="evenodd" d="M0 20C0 31.0456 8.95438 40 20 40C31.0456 40 40 31.0456 40 20C40 8.95438 31.0456 0 20 0C8.95438 0 0 8.95438 0 20Z" clip-rule="evenodd"/><path fill="#14203E" fill-rule="evenodd" d="M28.9842 26.8493L37.7529 10.899H23.0057L19.8878 15.6181L17.163 10.899H2.24731L11.0159 26.8493V32.2473H29.0053L28.9842 26.8493Z" clip-rule="evenodd"/><path fill="#FDBD27" fill-rule="evenodd" d="M27.4158 26.8591C27.4158 22.7634 24.0958 19.4434 20.0001 19.4434C15.9044 19.4434 12.5844 22.7634 12.5844 26.8591V32.2472H27.4158V26.8591Z" clip-rule="evenodd"/><path fill="#FC9322" fill-rule="evenodd" d="M15.9551 10.8989C15.9551 13.5052 13.8425 15.618 11.2359 15.618C8.62966 15.618 6.51685 13.5052 6.51685 10.8989H15.9551Z" clip-rule="evenodd"/><path fill="#FC9322" fill-rule="evenodd" d="M33.4831 10.8989C33.4831 13.5052 31.3705 15.618 28.764 15.618C26.1577 15.618 24.0449 13.5052 24.0449 10.8989H33.4831Z" clip-rule="evenodd"/><path fill="#fff" fill-rule="evenodd" d="M9.2091 15.1556L11.2361 10.899H6.51697C6.51697 12.7785 7.61854 14.3967 9.2091 15.1556Z" clip-rule="evenodd"/><path fill="#fff" fill-rule="evenodd" d="M26.7372 15.1556L28.7641 10.899H24.045C24.045 12.7785 25.1466 14.3967 26.7372 15.1556Z" clip-rule="evenodd"/><path fill="#14203E" fill-rule="evenodd" d="M19.6204 32.2472H20.3797V20.6874H19.6204V32.2472Z" clip-rule="evenodd"/><path fill="#14203E" fill-rule="evenodd" d="M15.7654 32.2472H16.5247V20.6874H15.7654V32.2472Z" clip-rule="evenodd"/><path fill="#14203E" fill-rule="evenodd" d="M23.4753 32.2472H24.2347V20.6874H23.4753V32.2472Z" clip-rule="evenodd"/><path fill="#FC9322" fill-rule="evenodd" d="M20.0001 20.7917C23.3457 20.7917 26.0675 23.5135 26.0675 26.8591V32.2472H27.4158V26.8591C27.4158 22.7634 24.0958 19.4434 20.0001 19.4434C15.9044 19.4434 12.5844 22.7634 12.5844 26.8591V32.2472H13.9327V26.8591C13.9327 23.5135 16.6545 20.7917 20.0001 20.7917Z" clip-rule="evenodd"/></svg>